<svg xmlns="http://www.w3.org/2000/svg" viewBox="0 0 1200 800" font-family="'Inter','SF Pro Display','Segoe UI',system-ui,sans-serif">
  <!-- ============================================================= -->
  <!-- gomall · 整体架构 (Overall Architecture)                       -->
  <!-- Top→Bottom traffic topology: Client → Gateway → Services →    -->
  <!-- (MQ bypass) → Data/Infra. Solid=#38bdf8 sync, dashed=#fbbf24. -->
  <!-- ============================================================= -->

  <!-- ===================== Shared defs ===================== -->
  <defs>
    <!-- 层级渐变 -->
    <linearGradient id="gClient" x1="0" y1="0" x2="0" y2="1">
      <stop offset="0" stop-color="#f472b6"/><stop offset="1" stop-color="#a855f7"/>
    </linearGradient>
    <linearGradient id="gGate" x1="0" y1="0" x2="0" y2="1">
      <stop offset="0" stop-color="#38bdf8"/><stop offset="1" stop-color="#0ea5e9"/>
    </linearGradient>
    <linearGradient id="gTrade" x1="0" y1="0" x2="0" y2="1">
      <stop offset="0" stop-color="#60a5fa"/><stop offset="1" stop-color="#2563eb"/>
    </linearGradient>
    <linearGradient id="gProduct" x1="0" y1="0" x2="0" y2="1">
      <stop offset="0" stop-color="#2dd4bf"/><stop offset="1" stop-color="#0d9488"/>
    </linearGradient>
    <linearGradient id="gPromo" x1="0" y1="0" x2="0" y2="1">
      <stop offset="0" stop-color="#fb923c"/><stop offset="1" stop-color="#ea580c"/>
    </linearGradient>
    <linearGradient id="gUser" x1="0" y1="0" x2="0" y2="1">
      <stop offset="0" stop-color="#c084fc"/><stop offset="1" stop-color="#9333ea"/>
    </linearGradient>
    <linearGradient id="gData" x1="0" y1="0" x2="0" y2="1">
      <stop offset="0" stop-color="#34d399"/><stop offset="1" stop-color="#059669"/>
    </linearGradient>
    <linearGradient id="gMQ" x1="0" y1="0" x2="0" y2="1">
      <stop offset="0" stop-color="#fbbf24"/><stop offset="1" stop-color="#d97706"/>
    </linearGradient>
    <!-- 阴影 -->
    <filter id="shadow" x="-20%" y="-20%" width="140%" height="140%">
      <feDropShadow dx="0" dy="4" stdDeviation="8" flood-color="#000000" flood-opacity="0.35"/>
    </filter>
    <!-- 核心组件发光 -->
    <filter id="glow" x="-50%" y="-50%" width="200%" height="200%">
      <feGaussianBlur stdDeviation="6" result="b"/>
      <feMerge><feMergeNode in="b"/><feMergeNode in="SourceGraphic"/></feMerge>
    </filter>
    <!-- 实线箭头(同步主流量) -->
    <marker id="arrow" viewBox="0 0 10 10" refX="9" refY="5" markerWidth="7" markerHeight="7" orient="auto-start-reverse">
      <path d="M0,0 L10,5 L0,10 z" fill="#38bdf8"/>
    </marker>
    <!-- 虚线箭头(异步/MQ/旁路) -->
    <marker id="arrowA" viewBox="0 0 10 10" refX="9" refY="5" markerWidth="7" markerHeight="7" orient="auto-start-reverse">
      <path d="M0,0 L10,5 L0,10 z" fill="#fbbf24"/>
    </marker>

    <!-- ===== Component Icons (24x24, white) ===== -->
    <!-- MySQL: 数据库圆柱 + 海豚尾鳍点睛 -->
    <symbol id="ic-mysql" viewBox="0 0 24 24">
      <g fill="none" stroke="#ffffff" stroke-width="1.6" stroke-linejoin="round">
        <ellipse cx="11" cy="5.2" rx="6.6" ry="2.4"/>
        <path d="M4.4 5.2 V15 c0 1.33 2.96 2.4 6.6 2.4 s6.6-1.07 6.6-2.4 V5.2"/>
        <path d="M4.4 10.1 c0 1.33 2.96 2.4 6.6 2.4 s6.6-1.07 6.6-2.4" stroke-opacity="0.65"/>
      </g>
      <path d="M16.4 14.2 c2.2 0.2 3.4 1.6 4.2 3.4 c-1.7-0.7-2.6-0.5-3.4-0.2 c0.5-1.1 0.1-2.2-0.8-3.2 z" fill="#ffffff"/>
    </symbol>
    <!-- Redis: 堆叠立方(三层菱形) -->
    <symbol id="ic-redis" viewBox="0 0 24 24">
      <g fill="none" stroke="#ffffff" stroke-width="1.5" stroke-linejoin="round">
        <path d="M2.6 7.2 L12 3.4 L21.4 7.2 L12 11 Z"/>
        <path d="M2.6 12 L12 15.8 L21.4 12"/>
        <path d="M2.6 16.6 L12 20.4 L21.4 16.6"/>
      </g>
      <circle cx="12" cy="7.2" r="1.1" fill="#ffffff"/>
    </symbol>
    <!-- RabbitMQ: 消息队列(信封 + 流转箭头) -->
    <symbol id="ic-rabbitmq" viewBox="0 0 24 24">
      <rect x="3" y="6" width="14" height="10" rx="1.6" fill="none" stroke="#ffffff" stroke-width="1.6"/>
      <path d="M3.6 7 L10 11.4 L16.4 7" fill="none" stroke="#ffffff" stroke-width="1.5" stroke-linejoin="round"/>
      <path d="M16 18.6 h4 m0 0 l-2-2 m2 2 l-2 2" fill="none" stroke="#ffffff" stroke-width="1.6" stroke-linecap="round" stroke-linejoin="round"/>
    </symbol>
    <!-- ElasticSearch: 放大镜(检索) -->
    <symbol id="ic-es" viewBox="0 0 24 24">
      <circle cx="10" cy="10" r="6" fill="none" stroke="#ffffff" stroke-width="1.7"/>
      <path d="M14.6 14.6 L20 20" stroke="#ffffff" stroke-width="2" stroke-linecap="round"/>
      <path d="M7.4 10 h5.2 M10 7.4 v5.2" stroke="#ffffff" stroke-width="1.3" stroke-opacity="0.7"/>
    </symbol>
    <!-- Milvus: 向量散点(近邻连边) -->
    <symbol id="ic-milvus" viewBox="0 0 24 24">
      <g stroke="#ffffff" stroke-width="1.3" stroke-opacity="0.7">
        <path d="M6 7 L12 12 M18 6 L12 12 M5 17 L12 12 M17 17 L12 12"/>
      </g>
      <g fill="#ffffff">
        <circle cx="6" cy="7" r="1.7"/><circle cx="18" cy="6" r="1.7"/>
        <circle cx="5" cy="17" r="1.7"/><circle cx="17" cy="17" r="1.7"/>
        <circle cx="12" cy="12" r="2.2"/>
      </g>
    </symbol>
    <!-- Web3 / EVM: 以太坊菱形 -->
    <symbol id="ic-web3" viewBox="0 0 24 24">
      <g fill="#ffffff">
        <path d="M12 2 L18.4 12 L12 15.6 L5.6 12 Z" fill-opacity="0.95"/>
        <path d="M12 2 L18.4 12 L12 9.4 Z" fill-opacity="0.6"/>
        <path d="M12 16.9 L18.4 13.2 L12 22 L5.6 13.2 Z"/>
      </g>
    </symbol>
    <!-- Web Portal: 浏览器窗口 -->
    <symbol id="ic-web" viewBox="0 0 24 24">
      <rect x="3" y="4.5" width="18" height="15" rx="1.8" fill="none" stroke="#ffffff" stroke-width="1.6"/>
      <path d="M3 8.6 H21" stroke="#ffffff" stroke-width="1.6"/>
      <g fill="#ffffff"><circle cx="5.6" cy="6.5" r="0.8"/><circle cx="8" cy="6.5" r="0.8"/></g>
    </symbol>
    <!-- Mobile App: 手机 -->
    <symbol id="ic-mobile" viewBox="0 0 24 24">
      <rect x="7" y="3" width="10" height="18" rx="2.2" fill="none" stroke="#ffffff" stroke-width="1.6"/>
      <path d="M10.4 18 h3.2" stroke="#ffffff" stroke-width="1.6" stroke-linecap="round"/>
    </symbol>
    <!-- Gateway: 盾形(网关/中间件) -->
    <symbol id="ic-gateway" viewBox="0 0 24 24">
      <path d="M12 2.6 L20 5.4 V11 c0 5.2-3.4 8.2-8 10.4 C7.4 19.2 4 16.2 4 11 V5.4 Z" fill="none" stroke="#ffffff" stroke-width="1.6" stroke-linejoin="round"/>
      <path d="M8.6 11.6 L11 14 L15.4 9" fill="none" stroke="#ffffff" stroke-width="1.7" stroke-linecap="round" stroke-linejoin="round"/>
    </symbol>
    <!-- Outbox: 发件箱(箱 + 上行箭头) -->
    <symbol id="ic-outbox" viewBox="0 0 24 24">
      <path d="M3.5 12 H8 l1.4 2.2 h4.2 L15 12 h5.5 V19 a1.4 1.4 0 0 1-1.4 1.4 H4.9 A1.4 1.4 0 0 1 3.5 19 Z" fill="none" stroke="#ffffff" stroke-width="1.5" stroke-linejoin="round"/>
      <path d="M12 9.6 V2.8 m0 0 L9.4 5.4 M12 2.8 l2.6 2.6" fill="none" stroke="#ffffff" stroke-width="1.5" stroke-linecap="round" stroke-linejoin="round"/>
    </symbol>
  </defs>

  <!-- ===================== Background ===================== -->
  <rect x="0" y="0" width="1200" height="800" fill="#0d1117"/>

  <!-- ===================== Title ===================== -->
  <g>
    <text x="48" y="46" fill="#ffffff" font-size="30" font-weight="700">gomall · 整体架构</text>
    <text x="48" y="72" fill="rgba(255,255,255,0.55)" font-size="14" letter-spacing="0.5">Gin 单体电商 · 分域服务 + RabbitMQ 旁路 + 多存储基础设施　Client → Gateway → Services → Data</text>
  </g>

  <!-- ===================== Legend (top-right) ===================== -->
  <g transform="translate(820,28)">
    <rect x="0" y="0" width="332" height="56" rx="10" fill="rgba(255,255,255,0.03)" stroke="rgba(255,255,255,0.08)"/>
    <!-- sync -->
    <line x1="16" y1="20" x2="56" y2="20" stroke="#38bdf8" stroke-width="2" marker-end="url(#arrow)"/>
    <text x="64" y="24" fill="rgba(255,255,255,0.75)" font-size="12">同步调用</text>
    <!-- async -->
    <line x1="150" y1="20" x2="190" y2="20" stroke="#fbbf24" stroke-width="2" stroke-dasharray="5,5" marker-end="url(#arrowA)"/>
    <text x="198" y="24" fill="rgba(255,255,255,0.75)" font-size="12">异步 / MQ</text>
    <!-- domain swatches -->
    <rect x="16" y="36" width="11" height="11" rx="2" fill="url(#gTrade)"/>
    <text x="31" y="45" fill="rgba(255,255,255,0.6)" font-size="11">交易</text>
    <rect x="68" y="36" width="11" height="11" rx="2" fill="url(#gProduct)"/>
    <text x="83" y="45" fill="rgba(255,255,255,0.6)" font-size="11">商品</text>
    <rect x="120" y="36" width="11" height="11" rx="2" fill="url(#gPromo)"/>
    <text x="135" y="45" fill="rgba(255,255,255,0.6)" font-size="11">营销</text>
    <rect x="172" y="36" width="11" height="11" rx="2" fill="url(#gUser)"/>
    <text x="187" y="45" fill="rgba(255,255,255,0.6)" font-size="11">用户</text>
    <rect x="224" y="36" width="11" height="11" rx="2" fill="url(#gData)"/>
    <text x="239" y="45" fill="rgba(255,255,255,0.6)" font-size="11">基础设施</text>
    <rect x="294" y="36" width="11" height="11" rx="2" fill="url(#gMQ)"/>
    <text x="309" y="45" fill="rgba(255,255,255,0.6)" font-size="11">MQ</text>
  </g>

  <!-- ============================================================= -->
  <!-- Layer 1: Client (gClient)                                     -->
  <!-- ============================================================= -->
  <g>
    <rect x="48" y="96" width="430" height="86" rx="14" fill="rgba(255,255,255,0.03)" stroke="rgba(255,255,255,0.08)"/>
    <text x="64" y="118" fill="rgba(255,255,255,0.45)" font-size="13" letter-spacing="2">CLIENT 客户端层</text>
    <!-- Web Portal -->
    <g>
      <rect x="70" y="126" width="180" height="48" rx="8" fill="url(#gClient)" stroke="rgba(255,255,255,0.16)" stroke-width="1.2" filter="url(#shadow)"/>
      <use href="#ic-web" x="84" y="139" width="24" height="24"/>
      <text x="116" y="144" fill="rgba(255,255,255,0.6)" font-size="11">[Client]</text>
      <text x="116" y="163" fill="#ffffff" font-size="16" font-weight="700">Web Portal</text>
    </g>
    <!-- Mobile App -->
    <g>
      <rect x="276" y="126" width="180" height="48" rx="8" fill="url(#gClient)" stroke="rgba(255,255,255,0.16)" stroke-width="1.2" filter="url(#shadow)"/>
      <use href="#ic-mobile" x="290" y="139" width="24" height="24"/>
      <text x="322" y="144" fill="rgba(255,255,255,0.6)" font-size="11">[Client]</text>
      <text x="322" y="163" fill="#ffffff" font-size="16" font-weight="700">Mobile App</text>
    </g>
  </g>

  <!-- ============================================================= -->
  <!-- Layer 2: Gateway + Middleware chain (gGate)                   -->
  <!-- ============================================================= -->
  <g>
    <rect x="48" y="214" width="1104" height="118" rx="14" fill="rgba(255,255,255,0.03)" stroke="rgba(255,255,255,0.08)"/>
    <text x="64" y="236" fill="rgba(255,255,255,0.45)" font-size="13" letter-spacing="2">GATEWAY 接入层 · 中间件链</text>

    <!-- Gin Router (core entry, glow) -->
    <g filter="url(#glow)">
      <rect x="70" y="250" width="190" height="66" rx="8" fill="url(#gGate)" stroke="rgba(255,255,255,0.16)" stroke-width="1.2"/>
      <use href="#ic-gateway" x="86" y="271" width="26" height="26"/>
      <text x="120" y="272" fill="rgba(255,255,255,0.7)" font-size="11">[Entry]</text>
      <text x="120" y="294" fill="#ffffff" font-size="17" font-weight="700">Gin Router</text>
      <text x="120" y="310" fill="rgba(255,255,255,0.65)" font-size="11">HTTP API 网关</text>
    </g>

    <!-- Middleware chain (small boxes) -->
    <!-- JWT -->
    <g>
      <rect x="290" y="258" width="128" height="50" rx="8" fill="url(#gGate)" stroke="rgba(255,255,255,0.16)" stroke-width="1.2" filter="url(#shadow)"/>
      <text x="302" y="280" fill="rgba(255,255,255,0.7)" font-size="10">[MW]</text>
      <text x="302" y="297" fill="#ffffff" font-size="13" font-weight="700">JWT 鉴权</text>
    </g>
    <!-- RBAC -->
    <g>
      <rect x="430" y="258" width="128" height="50" rx="8" fill="url(#gGate)" stroke="rgba(255,255,255,0.16)" stroke-width="1.2" filter="url(#shadow)"/>
      <text x="442" y="280" fill="rgba(255,255,255,0.7)" font-size="10">[MW]</text>
      <text x="442" y="297" fill="#ffffff" font-size="13" font-weight="700">RBAC 权限</text>
    </g>
    <!-- TokenBucket -->
    <g>
      <rect x="570" y="258" width="138" height="50" rx="8" fill="url(#gGate)" stroke="rgba(255,255,255,0.16)" stroke-width="1.2" filter="url(#shadow)"/>
      <text x="582" y="280" fill="rgba(255,255,255,0.7)" font-size="10">[MW]</text>
      <text x="582" y="297" fill="#ffffff" font-size="13" font-weight="700">TokenBucket 限流</text>
    </g>
    <!-- CircuitBreaker -->
    <g>
      <rect x="720" y="258" width="150" height="50" rx="8" fill="url(#gGate)" stroke="rgba(255,255,255,0.16)" stroke-width="1.2" filter="url(#shadow)"/>
      <text x="732" y="280" fill="rgba(255,255,255,0.7)" font-size="10">[MW]</text>
      <text x="732" y="297" fill="#ffffff" font-size="13" font-weight="700">CircuitBreaker 熔断</text>
    </g>
    <!-- Idempotency -->
    <g>
      <rect x="882" y="258" width="142" height="50" rx="8" fill="url(#gGate)" stroke="rgba(255,255,255,0.16)" stroke-width="1.2" filter="url(#shadow)"/>
      <text x="894" y="280" fill="rgba(255,255,255,0.7)" font-size="10">[MW]</text>
      <text x="894" y="297" fill="#ffffff" font-size="13" font-weight="700">Idempotency 幂等</text>
    </g>
    <!-- Jaeger -->
    <g>
      <rect x="1036" y="258" width="100" height="50" rx="8" fill="url(#gGate)" stroke="rgba(255,255,255,0.16)" stroke-width="1.2" filter="url(#shadow)"/>
      <text x="1048" y="280" fill="rgba(255,255,255,0.7)" font-size="10">[MW]</text>
      <text x="1048" y="297" fill="#ffffff" font-size="13" font-weight="700">Jaeger 追踪</text>
    </g>
  </g>

  <!-- ============================================================= -->
  <!-- Layer 3: Service domains (4 group boxes)                      -->
  <!-- ============================================================= -->
  <!-- Trade domain (gTrade) -->
  <g>
    <rect x="48" y="380" width="404" height="150" rx="14" fill="rgba(255,255,255,0.03)" stroke="rgba(255,255,255,0.08)"/>
    <text x="64" y="402" fill="rgba(255,255,255,0.45)" font-size="13" letter-spacing="2">交易域 TRADE</text>
    <!-- row 1 -->
    <g>
      <rect x="64" y="412" width="118" height="44" rx="8" fill="url(#gTrade)" stroke="rgba(255,255,255,0.16)" stroke-width="1.2" filter="url(#shadow)"/>
      <text x="123" y="439" fill="#ffffff" font-size="14" font-weight="700" text-anchor="middle">cart 购物车</text>
    </g>
    <g>
      <rect x="194" y="412" width="118" height="44" rx="8" fill="url(#gTrade)" stroke="rgba(255,255,255,0.16)" stroke-width="1.2" filter="url(#shadow)"/>
      <text x="253" y="439" fill="#ffffff" font-size="14" font-weight="700" text-anchor="middle">order 订单</text>
    </g>
    <g>
      <rect x="324" y="412" width="116" height="44" rx="8" fill="url(#gTrade)" stroke="rgba(255,255,255,0.16)" stroke-width="1.2" filter="url(#shadow)"/>
      <text x="382" y="439" fill="#ffffff" font-size="14" font-weight="700" text-anchor="middle">payment 支付</text>
    </g>
    <!-- row 2 -->
    <g>
      <rect x="64" y="468" width="118" height="44" rx="8" fill="url(#gTrade)" stroke="rgba(255,255,255,0.16)" stroke-width="1.2" filter="url(#shadow)"/>
      <text x="123" y="495" fill="#ffffff" font-size="14" font-weight="700" text-anchor="middle">refund 退款</text>
    </g>
    <g>
      <rect x="194" y="468" width="246" height="44" rx="8" fill="url(#gTrade)" stroke="rgba(255,255,255,0.16)" stroke-width="1.2" filter="url(#shadow)"/>
      <text x="317" y="490" fill="#ffffff" font-size="14" font-weight="700" text-anchor="middle">money 资金台账</text>
      <text x="317" y="505" fill="rgba(255,255,255,0.7)" font-size="10" text-anchor="middle">double-entry ledger</text>
    </g>
  </g>

  <!-- Product domain (gProduct) -->
  <g>
    <rect x="470" y="380" width="328" height="150" rx="14" fill="rgba(255,255,255,0.03)" stroke="rgba(255,255,255,0.08)"/>
    <text x="486" y="402" fill="rgba(255,255,255,0.45)" font-size="13" letter-spacing="2">商品域 PRODUCT</text>
    <g>
      <rect x="486" y="412" width="138" height="44" rx="8" fill="url(#gProduct)" stroke="rgba(255,255,255,0.16)" stroke-width="1.2" filter="url(#shadow)"/>
      <text x="555" y="439" fill="#ffffff" font-size="14" font-weight="700" text-anchor="middle">product 商品</text>
    </g>
    <g>
      <rect x="636" y="412" width="146" height="44" rx="8" fill="url(#gProduct)" stroke="rgba(255,255,255,0.16)" stroke-width="1.2" filter="url(#shadow)"/>
      <text x="709" y="439" fill="#ffffff" font-size="14" font-weight="700" text-anchor="middle">category 分类</text>
    </g>
    <g>
      <rect x="486" y="468" width="138" height="44" rx="8" fill="url(#gProduct)" stroke="rgba(255,255,255,0.16)" stroke-width="1.2" filter="url(#shadow)"/>
      <text x="555" y="495" fill="#ffffff" font-size="14" font-weight="700" text-anchor="middle">carousel 轮播</text>
    </g>
    <g>
      <rect x="636" y="468" width="146" height="44" rx="8" fill="url(#gProduct)" stroke="rgba(255,255,255,0.16)" stroke-width="1.2" filter="url(#shadow)"/>
      <text x="709" y="495" fill="#ffffff" font-size="14" font-weight="700" text-anchor="middle">search 搜索</text>
    </g>
  </g>

  <!-- Promo domain (gPromo) -->
  <g>
    <rect x="816" y="380" width="336" height="150" rx="14" fill="rgba(255,255,255,0.03)" stroke="rgba(255,255,255,0.08)"/>
    <text x="832" y="402" fill="rgba(255,255,255,0.45)" font-size="13" letter-spacing="2">营销域 PROMO</text>
    <!-- row 1: 3 boxes -->
    <g>
      <rect x="832" y="412" width="98" height="44" rx="8" fill="url(#gPromo)" stroke="rgba(255,255,255,0.16)" stroke-width="1.2" filter="url(#shadow)"/>
      <text x="881" y="434" fill="#ffffff" font-size="13" font-weight="700" text-anchor="middle">coupon</text>
      <text x="881" y="448" fill="rgba(255,255,255,0.7)" font-size="10" text-anchor="middle">优惠券</text>
    </g>
    <g>
      <rect x="940" y="412" width="98" height="44" rx="8" fill="url(#gPromo)" stroke="rgba(255,255,255,0.16)" stroke-width="1.2" filter="url(#shadow)"/>
      <text x="989" y="434" fill="#ffffff" font-size="13" font-weight="700" text-anchor="middle">skill</text>
      <text x="989" y="448" fill="rgba(255,255,255,0.7)" font-size="10" text-anchor="middle">秒杀</text>
    </g>
    <g>
      <rect x="1048" y="412" width="88" height="44" rx="8" fill="url(#gPromo)" stroke="rgba(255,255,255,0.16)" stroke-width="1.2" filter="url(#shadow)"/>
      <text x="1092" y="434" fill="#ffffff" font-size="13" font-weight="700" text-anchor="middle">redpacket</text>
      <text x="1092" y="448" fill="rgba(255,255,255,0.7)" font-size="10" text-anchor="middle">红包</text>
    </g>
    <!-- row 2: 3 boxes -->
    <g>
      <rect x="832" y="468" width="98" height="44" rx="8" fill="url(#gPromo)" stroke="rgba(255,255,255,0.16)" stroke-width="1.2" filter="url(#shadow)"/>
      <text x="881" y="490" fill="#ffffff" font-size="13" font-weight="700" text-anchor="middle">promo</text>
      <text x="881" y="504" fill="rgba(255,255,255,0.7)" font-size="10" text-anchor="middle">促销</text>
    </g>
    <g>
      <rect x="940" y="468" width="98" height="44" rx="8" fill="url(#gPromo)" stroke="rgba(255,255,255,0.16)" stroke-width="1.2" filter="url(#shadow)"/>
      <text x="989" y="490" fill="#ffffff" font-size="13" font-weight="700" text-anchor="middle">groupbuy</text>
      <text x="989" y="504" fill="rgba(255,255,255,0.7)" font-size="10" text-anchor="middle">拼团</text>
    </g>
    <g>
      <rect x="1048" y="468" width="88" height="44" rx="8" fill="url(#gPromo)" stroke="rgba(255,255,255,0.16)" stroke-width="1.2" filter="url(#shadow)"/>
      <text x="1092" y="490" fill="#ffffff" font-size="13" font-weight="700" text-anchor="middle">preorder</text>
      <text x="1092" y="504" fill="rgba(255,255,255,0.7)" font-size="10" text-anchor="middle">预售</text>
    </g>
  </g>

  <!-- User / Platform domain (gUser) -->
  <g>
    <rect x="48" y="548" width="750" height="84" rx="14" fill="rgba(255,255,255,0.03)" stroke="rgba(255,255,255,0.08)"/>
    <text x="64" y="570" fill="rgba(255,255,255,0.45)" font-size="13" letter-spacing="2">用户 / 平台域 USER</text>
    <g>
      <rect x="64" y="578" width="132" height="42" rx="8" fill="url(#gUser)" stroke="rgba(255,255,255,0.16)" stroke-width="1.2" filter="url(#shadow)"/>
      <text x="130" y="604" fill="#ffffff" font-size="14" font-weight="700" text-anchor="middle">user 用户</text>
    </g>
    <g>
      <rect x="208" y="578" width="132" height="42" rx="8" fill="url(#gUser)" stroke="rgba(255,255,255,0.16)" stroke-width="1.2" filter="url(#shadow)"/>
      <text x="274" y="604" fill="#ffffff" font-size="14" font-weight="700" text-anchor="middle">address 地址</text>
    </g>
    <g>
      <rect x="352" y="578" width="132" height="42" rx="8" fill="url(#gUser)" stroke="rgba(255,255,255,0.16)" stroke-width="1.2" filter="url(#shadow)"/>
      <text x="418" y="604" fill="#ffffff" font-size="14" font-weight="700" text-anchor="middle">favorite 收藏</text>
    </g>
    <g>
      <rect x="496" y="578" width="132" height="42" rx="8" fill="url(#gUser)" stroke="rgba(255,255,255,0.16)" stroke-width="1.2" filter="url(#shadow)"/>
      <text x="562" y="604" fill="#ffffff" font-size="14" font-weight="700" text-anchor="middle">notice 通知</text>
    </g>
    <g>
      <rect x="640" y="578" width="142" height="42" rx="8" fill="url(#gUser)" stroke="rgba(255,255,255,0.16)" stroke-width="1.2" filter="url(#shadow)"/>
      <text x="711" y="604" fill="#ffffff" font-size="14" font-weight="700" text-anchor="middle">admin 后台</text>
    </g>
  </g>

  <!-- ============================================================= -->
  <!-- Layer 4: Message middleware (gMQ, bypass on right)            -->
  <!-- ============================================================= -->
  <g>
    <rect x="816" y="548" width="336" height="84" rx="14" fill="rgba(255,255,255,0.03)" stroke="rgba(255,255,255,0.08)"/>
    <text x="832" y="570" fill="rgba(255,255,255,0.45)" font-size="13" letter-spacing="2">消息中间件 MQ · 旁路</text>
    <g>
      <rect x="832" y="578" width="150" height="42" rx="8" fill="url(#gMQ)" stroke="rgba(255,255,255,0.16)" stroke-width="1.2" filter="url(#shadow)"/>
      <use href="#ic-rabbitmq" x="840" y="588" width="22" height="22"/>
      <text x="916" y="600" fill="#ffffff" font-size="14" font-weight="700" text-anchor="middle">RabbitMQ</text>
      <text x="916" y="614" fill="rgba(255,255,255,0.75)" font-size="9.5" text-anchor="middle">order.delay TTL→DLX/DLQ</text>
    </g>
    <g>
      <rect x="992" y="578" width="144" height="42" rx="8" fill="url(#gMQ)" stroke="rgba(255,255,255,0.16)" stroke-width="1.2" filter="url(#shadow)"/>
      <use href="#ic-outbox" x="1000" y="588" width="22" height="22"/>
      <text x="1074" y="600" fill="#ffffff" font-size="13" font-weight="700" text-anchor="middle">Transactional</text>
      <text x="1074" y="614" fill="rgba(255,255,255,0.8)" font-size="11" text-anchor="middle">Outbox</text>
    </g>
  </g>

  <!-- ============================================================= -->
  <!-- Layer 5: Data / Infrastructure (gData)                        -->
  <!-- ============================================================= -->
  <g>
    <rect x="48" y="650" width="1104" height="112" rx="14" fill="rgba(255,255,255,0.03)" stroke="rgba(255,255,255,0.08)"/>
    <text x="64" y="672" fill="rgba(255,255,255,0.45)" font-size="13" letter-spacing="2">数据 / 基础设施 DATA &amp; INFRA</text>
    <!-- MySQL -->
    <g>
      <rect x="70" y="684" width="169" height="62" rx="8" fill="url(#gData)" stroke="rgba(255,255,255,0.16)" stroke-width="1.2" filter="url(#shadow)"/>
      <use href="#ic-mysql" x="84" y="702" width="24" height="24"/>
      <text x="116" y="704" fill="rgba(255,255,255,0.7)" font-size="11">[RDBMS]</text>
      <text x="116" y="724" fill="#ffffff" font-size="15" font-weight="700">MySQL 主从</text>
      <text x="116" y="739" fill="rgba(255,255,255,0.7)" font-size="10">read/write split</text>
    </g>
    <!-- Redis -->
    <g>
      <rect x="249" y="684" width="169" height="62" rx="8" fill="url(#gData)" stroke="rgba(255,255,255,0.16)" stroke-width="1.2" filter="url(#shadow)"/>
      <use href="#ic-redis" x="263" y="702" width="24" height="24"/>
      <text x="295" y="704" fill="rgba(255,255,255,0.7)" font-size="11">[Cache]</text>
      <text x="295" y="724" fill="#ffffff" font-size="15" font-weight="700">Redis</text>
      <text x="295" y="739" fill="rgba(255,255,255,0.7)" font-size="9.5">缓存 + Lua 扣库存</text>
    </g>
    <!-- ElasticSearch -->
    <g>
      <rect x="428" y="684" width="169" height="62" rx="8" fill="url(#gData)" stroke="rgba(255,255,255,0.16)" stroke-width="1.2" filter="url(#shadow)"/>
      <use href="#ic-es" x="442" y="702" width="24" height="24"/>
      <text x="474" y="704" fill="rgba(255,255,255,0.7)" font-size="11">[Search]</text>
      <text x="474" y="724" fill="#ffffff" font-size="14" font-weight="700">ElasticSearch</text>
      <text x="474" y="739" fill="rgba(255,255,255,0.7)" font-size="10">全文检索倒排</text>
    </g>
    <!-- Milvus -->
    <g>
      <rect x="607" y="684" width="169" height="62" rx="8" fill="url(#gData)" stroke="rgba(255,255,255,0.16)" stroke-width="1.2" filter="url(#shadow)"/>
      <use href="#ic-milvus" x="621" y="702" width="24" height="24"/>
      <text x="653" y="704" fill="rgba(255,255,255,0.7)" font-size="11">[Vector]</text>
      <text x="653" y="724" fill="#ffffff" font-size="15" font-weight="700">Milvus</text>
      <text x="653" y="739" fill="rgba(255,255,255,0.7)" font-size="9.5">向量库 · 语义召回</text>
    </g>
    <!-- Web3 / EVM -->
    <g>
      <rect x="786" y="684" width="169" height="62" rx="8" fill="url(#gData)" stroke="rgba(255,255,255,0.16)" stroke-width="1.2" filter="url(#shadow)"/>
      <use href="#ic-web3" x="800" y="702" width="24" height="24"/>
      <text x="832" y="704" fill="rgba(255,255,255,0.7)" font-size="11">[Chain]</text>
      <text x="832" y="724" fill="#ffffff" font-size="14" font-weight="700">Web3 / EVM</text>
      <text x="832" y="739" fill="rgba(255,255,255,0.7)" font-size="10">链上托管 / 对账</text>
    </g>
    <!-- Stripe (third-party payment) -->
    <g>
      <rect x="965" y="684" width="169" height="62" rx="8" fill="url(#gGate)" stroke="rgba(255,255,255,0.16)" stroke-width="1.2" filter="url(#shadow)"/>
      <!-- 银行卡 glyph (inline): 圆角卡 + 磁条色带 + 小方块 -->
      <g transform="translate(979,701)">
        <rect x="0" y="2" width="24" height="17" rx="2.4" fill="none" stroke="#ffffff" stroke-width="1.6"/>
        <rect x="0" y="5.6" width="24" height="3.4" fill="#ffffff"/>
        <rect x="3" y="12.2" width="6" height="3.6" rx="0.8" fill="#ffffff"/>
        <path d="M13 14 h7" stroke="#ffffff" stroke-width="1.4" stroke-linecap="round" stroke-opacity="0.8"/>
      </g>
      <text x="1011" y="704" fill="rgba(255,255,255,0.7)" font-size="11">[Payment]</text>
      <text x="1011" y="724" fill="#ffffff" font-size="15" font-weight="700">Stripe</text>
      <text x="1011" y="739" fill="rgba(255,255,255,0.7)" font-size="9.5">三方支付 · Checkout</text>
    </g>
  </g>

  <!-- ============================================================= -->
  <!-- CONNECTIONS                                                   -->
  <!-- ============================================================= -->

  <!-- · Client → Gin Router (HTTPS, solid) · -->
  <g>
    <!-- Web Portal (cx 160) → Router top-left (x~120) -->
    <path d="M160,174 L160,250" stroke="#38bdf8" stroke-width="2" fill="none" marker-end="url(#arrow)"/>
    <!-- Mobile App (cx 366) → Router top (x~210) via elbow -->
    <path d="M366,174 L366,200 L210,200 L210,250" stroke="#38bdf8" stroke-width="2" fill="none" marker-end="url(#arrow)"/>
    <!-- HTTPS label -->
    <g>
      <rect x="232" y="190" width="56" height="18" rx="4" fill="#0d1117"/>
      <text x="260" y="203" fill="rgba(255,255,255,0.6)" font-size="11" text-anchor="middle">HTTPS</text>
    </g>
  </g>

  <!-- · Gin Router → Service layer (solid, after middleware chain) · -->
  <!-- Router bottom (x~165, y316) descends to a horizontal bus at y=358, fans into 4 domains -->
  <g>
    <!-- vertical drop from router -->
    <path d="M165,316 L165,358" stroke="#38bdf8" stroke-width="2" fill="none"/>
    <!-- horizontal bus across all domains -->
    <line x1="165" y1="358" x2="984" y2="358" stroke="#38bdf8" stroke-width="2"/>
    <!-- down into Trade -->
    <path d="M230,358 L230,380" stroke="#38bdf8" stroke-width="2" fill="none" marker-end="url(#arrow)"/>
    <!-- down into Product -->
    <path d="M634,358 L634,380" stroke="#38bdf8" stroke-width="2" fill="none" marker-end="url(#arrow)"/>
    <!-- down into Promo -->
    <path d="M984,358 L984,380" stroke="#38bdf8" stroke-width="2" fill="none" marker-end="url(#arrow)"/>
    <!-- down into User domain (longer drop on the left, routed to avoid Trade box) -->
    <path d="M165,358 L165,548" stroke="#38bdf8" stroke-width="2" fill="none" marker-end="url(#arrow)"/>
    <!-- route label -->
    <g>
      <rect x="690" y="349" width="118" height="18" rx="4" fill="#0d1117"/>
      <text x="749" y="362" fill="rgba(255,255,255,0.6)" font-size="11" text-anchor="middle">routed via 中间件链</text>
    </g>
  </g>

  <!-- · Service domains → MySQL (Read/Write, solid) · -->
  <g>
    <!-- Trade(order, cx253 bottom y530) → MySQL (cx165 top y684) -->
    <path d="M150,530 L150,668 L165,668 L165,684" stroke="#38bdf8" stroke-width="2" fill="none" marker-end="url(#arrow)"/>
    <g>
      <rect x="120" y="638" width="86" height="18" rx="4" fill="#0d1117"/>
      <text x="163" y="651" fill="rgba(255,255,255,0.6)" font-size="11" text-anchor="middle">Read/Write</text>
    </g>
  </g>

  <!-- · Service domains → Redis (Cache-Aside, solid) · -->
  <g>
    <!-- Product(cx555 bottom y530) → Redis (cx333 top y684) -->
    <path d="M555,530 L555,640 L333,640 L333,684" stroke="#38bdf8" stroke-width="2" fill="none" marker-end="url(#arrow)"/>
    <g>
      <rect x="340" y="631" width="92" height="18" rx="4" fill="#0d1117"/>
      <text x="386" y="644" fill="rgba(255,255,255,0.6)" font-size="11" text-anchor="middle">Cache-Aside</text>
    </g>
  </g>

  <!-- · search → ElasticSearch / Milvus (solid) · -->
  <g>
    <!-- search box cx709 bottom y456 → ES (cx512 top y684) -->
    <path d="M695,456 L695,520 L512,520 L512,684" stroke="#38bdf8" stroke-width="2" fill="none" marker-end="url(#arrow)"/>
    <!-- search → Milvus (cx691 top y684) -->
    <path d="M725,456 L725,540 L691,540 L691,684" stroke="#38bdf8" stroke-width="2" fill="none" marker-end="url(#arrow)"/>
    <g>
      <rect x="566" y="511" width="78" height="18" rx="4" fill="#0d1117"/>
      <text x="605" y="524" fill="rgba(255,255,255,0.6)" font-size="11" text-anchor="middle">索引/检索</text>
    </g>
  </g>

  <!-- · Service → Outbox → RabbitMQ (Pub, dashed) · -->
  <g>
    <!-- Promo domain bottom (cx984 y530) → Outbox (cx1064 top y578) -->
    <path d="M1064,530 L1064,578" stroke="#fbbf24" stroke-width="2" stroke-dasharray="5,5" fill="none" marker-end="url(#arrowA)"/>
    <!-- Outbox → RabbitMQ (within MQ box) -->
    <path d="M992,599 L982,599" stroke="#fbbf24" stroke-width="2" stroke-dasharray="5,5" fill="none" marker-end="url(#arrowA)"/>
    <g>
      <rect x="1040" y="545" width="48" height="18" rx="4" fill="#0d1117"/>
      <text x="1064" y="558" fill="rgba(255,255,255,0.6)" font-size="11" text-anchor="middle">Pub</text>
    </g>
  </g>

  <!-- · RabbitMQ → consumer (Sub, dashed back to services) · -->
  <g>
    <!-- RabbitMQ (cx907 top y578) → up and left into service layer (order consumer, around x830 y530) -->
    <path d="M907,578 L907,544 L820,544 L820,530" stroke="#fbbf24" stroke-width="2" stroke-dasharray="5,5" fill="none" marker-end="url(#arrowA)"/>
    <g>
      <rect x="838" y="535" width="46" height="18" rx="4" fill="#0d1117"/>
      <text x="861" y="548" fill="rgba(255,255,255,0.6)" font-size="11" text-anchor="middle">Sub</text>
    </g>
  </g>

  <!-- · payment → Web3/EVM (on-chain settle, dashed) · -->
  <g>
    <!-- payment box (cx382 bottom y456) → Web3 (cx870 top y684), routed along bottom right -->
    <path d="M412,440 L412,460 L460,460 L460,556 L870,556 L870,684" stroke="#fbbf24" stroke-width="2" stroke-dasharray="5,5" fill="none" marker-end="url(#arrowA)"/>
    <g>
      <rect x="610" y="547" width="96" height="18" rx="4" fill="#0d1117"/>
      <text x="658" y="560" fill="rgba(255,255,255,0.6)" font-size="11" text-anchor="middle">链上对账</text>
    </g>
  </g>

  <!-- · payment ⇄ Stripe : 平行双线(请求/回调). 仅用三处空档穿越,不压任何框:
         A) x≈458/466 = Trade(右452)↔Product(左470) 竖直空档
         B) y≈536/544 = 服务域底(530)↔User/MQ 带顶(548) 横向空档
         C) x≈803/811 = User域(右798)↔MQ框(左816) 竖直空档,下穿到数据行上方 y≈636/644 走廊 · -->
  <g>
    <!-- payment 右侧 → Stripe 顶部 (Checkout, 同步创建会话) -->
    <path d="M440,428 L456,428 L456,536 L803,536 L803,636 L1041,636 L1041,684" stroke="#38bdf8" stroke-width="2" fill="none" marker-end="url(#arrow)"/>
    <g>
      <rect x="585" y="527" width="68" height="18" rx="4" fill="#0d1117"/>
      <text x="619" y="540" fill="rgba(255,255,255,0.6)" font-size="11" text-anchor="middle">Checkout</text>
    </g>
    <!-- Stripe 顶部 → payment 右侧 (webhook 异步回调) -->
    <path d="M1057,684 L1057,644 L811,644 L811,544 L466,544 L466,444 L440,444" stroke="#fbbf24" stroke-width="2" stroke-dasharray="5,5" fill="none" marker-end="url(#arrowA)"/>
    <g>
      <rect x="864" y="635" width="62" height="18" rx="4" fill="#0d1117"/>
      <text x="895" y="648" fill="rgba(255,255,255,0.6)" font-size="11" text-anchor="middle">webhook</text>
    </g>
  </g>

</svg>
