<svg xmlns="http://www.w3.org/2000/svg" viewBox="0 0 1200 800" font-family="'Inter','SF Pro Display','Segoe UI',system-ui,sans-serif">
  <!-- ============================================================ -->
  <!-- gomall · 领域地图（DDD 垂直切片）                              -->
  <!-- 背景 #0d1117 · 复用 _svg_style_spec.md 的 defs/配色/连线规范    -->
  <!-- ============================================================ -->

  <!-- 共享 defs（与全套架构图一致） -->
  <defs>
    <!-- 层级渐变 -->
    <linearGradient id="gClient" x1="0" y1="0" x2="0" y2="1">
      <stop offset="0" stop-color="#f472b6"/><stop offset="1" stop-color="#a855f7"/>
    </linearGradient>
    <linearGradient id="gGate" x1="0" y1="0" x2="0" y2="1">
      <stop offset="0" stop-color="#38bdf8"/><stop offset="1" stop-color="#0ea5e9"/>
    </linearGradient>
    <linearGradient id="gTrade" x1="0" y1="0" x2="0" y2="1">
      <stop offset="0" stop-color="#60a5fa"/><stop offset="1" stop-color="#2563eb"/>
    </linearGradient>
    <linearGradient id="gProduct" x1="0" y1="0" x2="0" y2="1">
      <stop offset="0" stop-color="#2dd4bf"/><stop offset="1" stop-color="#0d9488"/>
    </linearGradient>
    <linearGradient id="gPromo" x1="0" y1="0" x2="0" y2="1">
      <stop offset="0" stop-color="#fb923c"/><stop offset="1" stop-color="#ea580c"/>
    </linearGradient>
    <linearGradient id="gUser" x1="0" y1="0" x2="0" y2="1">
      <stop offset="0" stop-color="#c084fc"/><stop offset="1" stop-color="#9333ea"/>
    </linearGradient>
    <linearGradient id="gData" x1="0" y1="0" x2="0" y2="1">
      <stop offset="0" stop-color="#34d399"/><stop offset="1" stop-color="#059669"/>
    </linearGradient>
    <linearGradient id="gMQ" x1="0" y1="0" x2="0" y2="1">
      <stop offset="0" stop-color="#fbbf24"/><stop offset="1" stop-color="#d97706"/>
    </linearGradient>
    <!-- 阴影 -->
    <filter id="shadow" x="-20%" y="-20%" width="140%" height="140%">
      <feDropShadow dx="0" dy="4" stdDeviation="8" flood-color="#000000" flood-opacity="0.35"/>
    </filter>
    <!-- 核心组件发光 -->
    <filter id="glow" x="-50%" y="-50%" width="200%" height="200%">
      <feGaussianBlur stdDeviation="6" result="b"/>
      <feMerge><feMergeNode in="b"/><feMergeNode in="SourceGraphic"/></feMerge>
    </filter>
    <!-- 实线箭头(同步主依赖) -->
    <marker id="arrow" viewBox="0 0 10 10" refX="9" refY="5" markerWidth="7" markerHeight="7" orient="auto-start-reverse">
      <path d="M0,0 L10,5 L0,10 z" fill="#38bdf8"/>
    </marker>
    <!-- 虚线箭头(异步/MQ/旁路) -->
    <marker id="arrowA" viewBox="0 0 10 10" refX="9" refY="5" markerWidth="7" markerHeight="7" orient="auto-start-reverse">
      <path d="M0,0 L10,5 L0,10 z" fill="#fbbf24"/>
    </marker>
    <!-- 域间依赖专用箭头(灰白，方向=依赖方→被依赖方) -->
    <marker id="arrowDep" viewBox="0 0 10 10" refX="9" refY="5" markerWidth="8" markerHeight="8" orient="auto-start-reverse">
      <path d="M0,0 L10,5 L0,10 z" fill="#cbd5e1"/>
    </marker>

    <!-- ===== Component Icons (24x24, white) ===== -->
    <!-- MySQL: 数据库圆柱 + 海豚尾鳍点睛 -->
    <symbol id="ic-mysql" viewBox="0 0 24 24">
      <g fill="none" stroke="#ffffff" stroke-width="1.6" stroke-linejoin="round">
        <ellipse cx="11" cy="5.2" rx="6.6" ry="2.4"/>
        <path d="M4.4 5.2 V15 c0 1.33 2.96 2.4 6.6 2.4 s6.6-1.07 6.6-2.4 V5.2"/>
        <path d="M4.4 10.1 c0 1.33 2.96 2.4 6.6 2.4 s6.6-1.07 6.6-2.4" stroke-opacity="0.65"/>
      </g>
      <path d="M16.4 14.2 c2.2 0.2 3.4 1.6 4.2 3.4 c-1.7-0.7-2.6-0.5-3.4-0.2 c0.5-1.1 0.1-2.2-0.8-3.2 z" fill="#ffffff"/>
    </symbol>
    <!-- Redis: 堆叠立方(三层菱形) -->
    <symbol id="ic-redis" viewBox="0 0 24 24">
      <g fill="none" stroke="#ffffff" stroke-width="1.5" stroke-linejoin="round">
        <path d="M2.6 7.2 L12 3.4 L21.4 7.2 L12 11 Z"/>
        <path d="M2.6 12 L12 15.8 L21.4 12"/>
        <path d="M2.6 16.6 L12 20.4 L21.4 16.6"/>
      </g>
      <circle cx="12" cy="7.2" r="1.1" fill="#ffffff"/>
    </symbol>
    <!-- RabbitMQ: 消息队列(信封 + 流转箭头) -->
    <symbol id="ic-rabbitmq" viewBox="0 0 24 24">
      <rect x="3" y="6" width="14" height="10" rx="1.6" fill="none" stroke="#ffffff" stroke-width="1.6"/>
      <path d="M3.6 7 L10 11.4 L16.4 7" fill="none" stroke="#ffffff" stroke-width="1.5" stroke-linejoin="round"/>
      <path d="M16 18.6 h4 m0 0 l-2-2 m2 2 l-2 2" fill="none" stroke="#ffffff" stroke-width="1.6" stroke-linecap="round" stroke-linejoin="round"/>
    </symbol>
    <!-- ElasticSearch: 放大镜(检索) -->
    <symbol id="ic-es" viewBox="0 0 24 24">
      <circle cx="10" cy="10" r="6" fill="none" stroke="#ffffff" stroke-width="1.7"/>
      <path d="M14.6 14.6 L20 20" stroke="#ffffff" stroke-width="2" stroke-linecap="round"/>
      <path d="M7.4 10 h5.2 M10 7.4 v5.2" stroke="#ffffff" stroke-width="1.3" stroke-opacity="0.7"/>
    </symbol>
    <!-- Milvus: 向量散点(近邻连边) -->
    <symbol id="ic-milvus" viewBox="0 0 24 24">
      <g stroke="#ffffff" stroke-width="1.3" stroke-opacity="0.7">
        <path d="M6 7 L12 12 M18 6 L12 12 M5 17 L12 12 M17 17 L12 12"/>
      </g>
      <g fill="#ffffff">
        <circle cx="6" cy="7" r="1.7"/><circle cx="18" cy="6" r="1.7"/>
        <circle cx="5" cy="17" r="1.7"/><circle cx="17" cy="17" r="1.7"/>
        <circle cx="12" cy="12" r="2.2"/>
      </g>
    </symbol>
    <!-- Web3 / EVM: 以太坊菱形 -->
    <symbol id="ic-web3" viewBox="0 0 24 24">
      <g fill="#ffffff">
        <path d="M12 2 L18.4 12 L12 15.6 L5.6 12 Z" fill-opacity="0.95"/>
        <path d="M12 2 L18.4 12 L12 9.4 Z" fill-opacity="0.6"/>
        <path d="M12 16.9 L18.4 13.2 L12 22 L5.6 13.2 Z"/>
      </g>
    </symbol>
    <!-- Web Portal: 浏览器窗口 -->
    <symbol id="ic-web" viewBox="0 0 24 24">
      <rect x="3" y="4.5" width="18" height="15" rx="1.8" fill="none" stroke="#ffffff" stroke-width="1.6"/>
      <path d="M3 8.6 H21" stroke="#ffffff" stroke-width="1.6"/>
      <g fill="#ffffff"><circle cx="5.6" cy="6.5" r="0.8"/><circle cx="8" cy="6.5" r="0.8"/></g>
    </symbol>
    <!-- Mobile App: 手机 -->
    <symbol id="ic-mobile" viewBox="0 0 24 24">
      <rect x="7" y="3" width="10" height="18" rx="2.2" fill="none" stroke="#ffffff" stroke-width="1.6"/>
      <path d="M10.4 18 h3.2" stroke="#ffffff" stroke-width="1.6" stroke-linecap="round"/>
    </symbol>
    <!-- Gateway: 盾形(网关/中间件) -->
    <symbol id="ic-gateway" viewBox="0 0 24 24">
      <path d="M12 2.6 L20 5.4 V11 c0 5.2-3.4 8.2-8 10.4 C7.4 19.2 4 16.2 4 11 V5.4 Z" fill="none" stroke="#ffffff" stroke-width="1.6" stroke-linejoin="round"/>
      <path d="M8.6 11.6 L11 14 L15.4 9" fill="none" stroke="#ffffff" stroke-width="1.7" stroke-linecap="round" stroke-linejoin="round"/>
    </symbol>
    <!-- Outbox: 发件箱(箱 + 上行箭头) -->
    <symbol id="ic-outbox" viewBox="0 0 24 24">
      <path d="M3.5 12 H8 l1.4 2.2 h4.2 L15 12 h5.5 V19 a1.4 1.4 0 0 1-1.4 1.4 H4.9 A1.4 1.4 0 0 1 3.5 19 Z" fill="none" stroke="#ffffff" stroke-width="1.5" stroke-linejoin="round"/>
      <path d="M12 9.6 V2.8 m0 0 L9.4 5.4 M12 2.8 l2.6 2.6" fill="none" stroke="#ffffff" stroke-width="1.5" stroke-linecap="round" stroke-linejoin="round"/>
    </symbol>
  </defs>

  <!-- 画布背景 -->
  <rect x="0" y="0" width="1200" height="800" fill="#0d1117"/>

  <!-- ============================================================ -->
  <!-- 标题区                                                        -->
  <!-- ============================================================ -->
  <g>
    <text x="48" y="46" fill="#ffffff" font-size="27" font-weight="700">gomall · 领域地图（DDD 垂直切片）</text>
    <text x="48" y="70" fill="rgba(255,255,255,0.55)" font-size="14">
      按 bounded context 垂直切片 internal/&lt;domain&gt; · 22 个域 + 横切基座 · 箭头方向 = 依赖方 → 被依赖方
    </text>
  </g>

  <!-- 顶部图例：各色 = 各 bounded context -->
  <g transform="translate(742,22)" font-size="12">
    <rect x="0" y="0" width="410" height="56" rx="10" fill="rgba(255,255,255,0.03)" stroke="rgba(255,255,255,0.08)"/>
    <text x="14" y="20" fill="rgba(255,255,255,0.5)" font-size="11" letter-spacing="1">BOUNDED CONTEXT · 图例</text>
    <!-- 色块行 1 -->
    <rect x="14" y="30" width="14" height="14" rx="3" fill="url(#gTrade)"/>
    <text x="34" y="41" fill="rgba(255,255,255,0.8)">交易域</text>
    <rect x="90" y="30" width="14" height="14" rx="3" fill="url(#gProduct)"/>
    <text x="110" y="41" fill="rgba(255,255,255,0.8)">商品域</text>
    <rect x="166" y="30" width="14" height="14" rx="3" fill="url(#gPromo)"/>
    <text x="186" y="41" fill="rgba(255,255,255,0.8)">营销域</text>
    <rect x="242" y="30" width="14" height="14" rx="3" fill="url(#gUser)"/>
    <text x="262" y="41" fill="rgba(255,255,255,0.8)">用户/平台域</text>
    <rect x="346" y="30" width="14" height="14" rx="3" fill="url(#gMQ)"/>
    <text x="366" y="41" fill="rgba(255,255,255,0.8)">横切</text>
  </g>

  <!-- ============================================================ -->
  <!-- 域间依赖边（先画，置于盒子下层；箭头露在盒边缘外）            -->
  <!-- 实线 = 同步依赖；方向 = 依赖方 → 被依赖方；严禁穿盒          -->
  <!-- 盒坐标（rect）：                                              -->
  <!--   交易域 Group : x 48..408   , y 110..430                    -->
  <!--   商品域 Group : x 448..792  , y 110..430                    -->
  <!--   营销域 Group : x 48..408   , y 458..690                    -->
  <!--   用户/平台 Grp: x 832..1152 , y 110..430                    -->
  <!--   横切基座 Grp : x 448..1152 , y 458..610                    -->
  <!-- ============================================================ -->
  <g stroke="#cbd5e1" stroke-width="2" fill="none" marker-end="url(#arrowDep)" opacity="0.92">

    <!-- order → product (定价/库存)：交易域右侧 → 商品域左侧 -->
    <path d="M408,176 H448"/>
    <!-- order → promo (满减计算)：交易域下沿 → 营销域上沿(promo) -->
    <path d="M150,430 V458"/>
    <!-- order → address (地址归属校验)：交易域右上 → 用户/平台域左侧(address)
         走顶部通道 y=98，避开商品域盒 -->
    <path d="M250,110 V98 H980 V110"/>

    <!-- payment → product (商品归属转移)：交易域右 → 商品域左 -->
    <path d="M408,206 H448"/>
    <!-- payment → user (余额)：交易域右 → 用户/平台域(user)，走商品域上方通道 y=104 -->
    <path d="M280,110 V104 H900 V110"/>
    <!-- payment → money (写流水)：payment 与 money 同域内部，短实线 -->
    <path d="M196,332 V360"/>
    <!-- payment → order (状态)：同域内部，order→payment 反向，payment 读 order 状态 -->
    <path d="M118,332 V214"/>
  </g>

  <!-- cart / search → product（商品域内部入口左侧）+ preorder/groupbuy → order/payment -->
  <g stroke="#cbd5e1" stroke-width="2" fill="none" marker-end="url(#arrowDep)" opacity="0.92">
    <!-- cart → product：交易域(cart)右 → 商品域 product 左，走 y=380 低通道 -->
    <path d="M408,380 H448"/>
    <!-- preorder/groupbuy → order/payment (复用结算)：营销域右 → 交易域右下角
         走 x=420 外侧竖直通道，从交易域右边沿(x=408,y≈300) 进入 refund/payment 一侧 -->
    <path d="M408,520 H420 V300 H408"/>
  </g>

  <!-- 各域 → shared/outbox（发事件，虚线异步）：从各域汇聚到横切 outbox -->
  <g stroke="#fbbf24" stroke-width="2" fill="none" stroke-dasharray="5,5" marker-end="url(#arrowA)" opacity="0.85">
    <!-- 交易域 → outbox -->
    <path d="M380,430 V450 H520 V500"/>
    <!-- 商品域 → outbox -->
    <path d="M560,430 V500"/>
    <!-- 用户/平台域 → outbox -->
    <path d="M900,430 V450 H600 V500"/>
  </g>

  <!-- 横切基座 → 基础设施（虚线，落库/缓存/投递） -->
  <g stroke="#fbbf24" stroke-width="2" fill="none" stroke-dasharray="5,5" marker-end="url(#arrowA)" opacity="0.7">
    <path d="M800,610 V640"/>
  </g>

  <!-- ============================================================ -->
  <!-- 交易域 gTrade（蓝）：cart order payment refund money          -->
  <!-- ============================================================ -->
  <g>
    <rect x="48" y="110" width="360" height="320" rx="14" fill="rgba(96,165,250,0.05)" stroke="rgba(96,165,250,0.25)"/>
    <text x="66" y="136" fill="rgba(255,255,255,0.55)" font-size="13" letter-spacing="2">交易域 · gTrade · internal/{cart,order,payment,refund,money}</text>

    <!-- order -->
    <g filter="url(#shadow)">
      <rect x="66" y="152" width="148" height="62" rx="8" fill="url(#gTrade)" stroke="rgba(255,255,255,0.16)" stroke-width="1.2"/>
      <text x="78" y="174" fill="rgba(255,255,255,0.6)" font-size="11">[Aggregate]</text>
      <text x="78" y="196" fill="#fff" font-size="16" font-weight="700">order 订单</text>
    </g>
    <!-- payment -->
    <g filter="url(#shadow)">
      <rect x="66" y="270" width="148" height="62" rx="8" fill="url(#gTrade)" stroke="rgba(255,255,255,0.16)" stroke-width="1.2"/>
      <text x="78" y="292" fill="rgba(255,255,255,0.6)" font-size="11">[Service]</text>
      <text x="78" y="314" fill="#fff" font-size="16" font-weight="700">payment 支付</text>
    </g>
    <!-- cart -->
    <g filter="url(#shadow)">
      <rect x="240" y="152" width="148" height="62" rx="8" fill="url(#gTrade)" stroke="rgba(255,255,255,0.16)" stroke-width="1.2"/>
      <text x="252" y="174" fill="rgba(255,255,255,0.6)" font-size="11">[Service]</text>
      <text x="252" y="196" fill="#fff" font-size="16" font-weight="700">cart 购物车</text>
    </g>
    <!-- refund -->
    <g filter="url(#shadow)">
      <rect x="240" y="270" width="148" height="62" rx="8" fill="url(#gTrade)" stroke="rgba(255,255,255,0.16)" stroke-width="1.2"/>
      <text x="252" y="292" fill="rgba(255,255,255,0.6)" font-size="11">[Service]</text>
      <text x="252" y="314" fill="#fff" font-size="16" font-weight="700">refund 退款</text>
    </g>
    <!-- money -->
    <g filter="url(#shadow)">
      <rect x="66" y="352" width="322" height="56" rx="8" fill="url(#gTrade)" stroke="rgba(255,255,255,0.16)" stroke-width="1.2"/>
      <text x="78" y="373" fill="rgba(255,255,255,0.6)" font-size="11">[Ledger 资金台账]</text>
      <text x="78" y="394" fill="#fff" font-size="16" font-weight="700">money 账户 / 流水</text>
    </g>
  </g>

  <!-- ============================================================ -->
  <!-- 商品域 gProduct（青绿）：product category carousel favorite search -->
  <!-- ============================================================ -->
  <g>
    <rect x="448" y="110" width="344" height="320" rx="14" fill="rgba(45,212,191,0.05)" stroke="rgba(45,212,191,0.25)"/>
    <text x="466" y="136" fill="rgba(255,255,255,0.55)" font-size="13" letter-spacing="2">商品域 · gProduct · internal/{product,category,...,search}</text>

    <!-- product (聚合根) -->
    <g filter="url(#shadow)">
      <rect x="466" y="152" width="158" height="62" rx="8" fill="url(#gProduct)" stroke="rgba(255,255,255,0.16)" stroke-width="1.2"/>
      <text x="478" y="174" fill="rgba(255,255,255,0.6)" font-size="11">[Aggregate]</text>
      <text x="478" y="196" fill="#fff" font-size="16" font-weight="700">product 商品</text>
    </g>
    <!-- category -->
    <g filter="url(#shadow)">
      <rect x="640" y="152" width="134" height="62" rx="8" fill="url(#gProduct)" stroke="rgba(255,255,255,0.16)" stroke-width="1.2"/>
      <text x="652" y="174" fill="rgba(255,255,255,0.6)" font-size="11">[Service]</text>
      <text x="652" y="196" fill="#fff" font-size="15" font-weight="700">category 分类</text>
    </g>
    <!-- search -->
    <g filter="url(#shadow)">
      <rect x="466" y="270" width="158" height="62" rx="8" fill="url(#gProduct)" stroke="rgba(255,255,255,0.16)" stroke-width="1.2"/>
      <text x="478" y="292" fill="rgba(255,255,255,0.6)" font-size="11">[Service · ES/向量]</text>
      <text x="478" y="314" fill="#fff" font-size="16" font-weight="700">search 搜索</text>
    </g>
    <!-- favorite -->
    <g filter="url(#shadow)">
      <rect x="640" y="270" width="134" height="62" rx="8" fill="url(#gProduct)" stroke="rgba(255,255,255,0.16)" stroke-width="1.2"/>
      <text x="652" y="292" fill="rgba(255,255,255,0.6)" font-size="11">[Service]</text>
      <text x="652" y="314" fill="#fff" font-size="15" font-weight="700">favorite 收藏</text>
    </g>
    <!-- carousel -->
    <g filter="url(#shadow)">
      <rect x="466" y="352" width="308" height="56" rx="8" fill="url(#gProduct)" stroke="rgba(255,255,255,0.16)" stroke-width="1.2"/>
      <text x="478" y="373" fill="rgba(255,255,255,0.6)" font-size="11">[Service]</text>
      <text x="478" y="394" fill="#fff" font-size="16" font-weight="700">carousel 轮播 / 运营位</text>
    </g>

    <!-- 域内：search → product（已斩环为单向） -->
    <g stroke="#cbd5e1" stroke-width="2" fill="none" marker-end="url(#arrowDep)" opacity="0.92">
      <path d="M545,270 V214"/>
    </g>
    <text x="552" y="248" fill="rgba(255,255,255,0.6)" font-size="10.5">已斩环 · 单向</text>
  </g>

  <!-- ============================================================ -->
  <!-- 用户/平台域 gUser（紫）：user address notice admin           -->
  <!-- ============================================================ -->
  <g>
    <rect x="832" y="110" width="320" height="320" rx="14" fill="rgba(192,132,252,0.05)" stroke="rgba(192,132,252,0.25)"/>
    <text x="850" y="136" fill="rgba(255,255,255,0.55)" font-size="13" letter-spacing="2">用户 / 平台域 · gUser · internal/{user,address,notice,admin}</text>

    <!-- user -->
    <g filter="url(#shadow)">
      <rect x="850" y="152" width="142" height="62" rx="8" fill="url(#gUser)" stroke="rgba(255,255,255,0.16)" stroke-width="1.2"/>
      <text x="862" y="174" fill="rgba(255,255,255,0.6)" font-size="11">[Aggregate · 余额]</text>
      <text x="862" y="196" fill="#fff" font-size="16" font-weight="700">user 用户</text>
    </g>
    <!-- address -->
    <g filter="url(#shadow)">
      <rect x="1006" y="152" width="128" height="62" rx="8" fill="url(#gUser)" stroke="rgba(255,255,255,0.16)" stroke-width="1.2"/>
      <text x="1018" y="174" fill="rgba(255,255,255,0.6)" font-size="11">[Service]</text>
      <text x="1018" y="196" fill="#fff" font-size="15" font-weight="700">address 地址</text>
    </g>
    <!-- notice -->
    <g filter="url(#shadow)">
      <rect x="850" y="270" width="142" height="62" rx="8" fill="url(#gUser)" stroke="rgba(255,255,255,0.16)" stroke-width="1.2"/>
      <text x="862" y="292" fill="rgba(255,255,255,0.6)" font-size="11">[Service]</text>
      <text x="862" y="314" fill="#fff" font-size="16" font-weight="700">notice 通知</text>
    </g>
    <!-- admin -->
    <g filter="url(#shadow)">
      <rect x="1006" y="270" width="128" height="62" rx="8" fill="url(#gUser)" stroke="rgba(255,255,255,0.16)" stroke-width="1.2"/>
      <text x="1018" y="292" fill="rgba(255,255,255,0.6)" font-size="11">[Service]</text>
      <text x="1018" y="314" fill="#fff" font-size="15" font-weight="700">admin 后台</text>
    </g>
    <!-- 域说明 -->
    <text x="850" y="392" fill="rgba(255,255,255,0.5)" font-size="12">承载身份 / 余额 / 收货地址 / 站内信 / 运营后台</text>
  </g>

  <!-- ============================================================ -->
  <!-- 营销域 gPromo（橙）：coupon skill redpacket promo groupbuy preorder -->
  <!-- ============================================================ -->
  <g>
    <rect x="48" y="458" width="360" height="232" rx="14" fill="rgba(251,146,60,0.05)" stroke="rgba(251,146,60,0.25)"/>
    <text x="66" y="484" fill="rgba(255,255,255,0.55)" font-size="13" letter-spacing="2">营销域 · gPromo · internal/{coupon,skill,redpacket,promo,groupbuy,preorder}</text>

    <!-- promo (满减引擎，依赖源) -->
    <g filter="url(#shadow)">
      <rect x="66" y="500" width="148" height="58" rx="8" fill="url(#gPromo)" stroke="rgba(255,255,255,0.16)" stroke-width="1.2"/>
      <text x="78" y="521" fill="rgba(255,255,255,0.6)" font-size="11">[Engine · 满减]</text>
      <text x="78" y="542" fill="#fff" font-size="16" font-weight="700">promo 促销</text>
    </g>
    <!-- coupon -->
    <g filter="url(#shadow)">
      <rect x="226" y="500" width="74" height="58" rx="8" fill="url(#gPromo)" stroke="rgba(255,255,255,0.16)" stroke-width="1.2"/>
      <text x="238" y="528" fill="#fff" font-size="14" font-weight="700">coupon</text>
      <text x="238" y="545" fill="rgba(255,255,255,0.75)" font-size="11">优惠券</text>
    </g>
    <!-- skill (秒杀) -->
    <g filter="url(#shadow)">
      <rect x="312" y="500" width="80" height="58" rx="8" fill="url(#gPromo)" stroke="rgba(255,255,255,0.16)" stroke-width="1.2"/>
      <text x="324" y="528" fill="#fff" font-size="14" font-weight="700">skill</text>
      <text x="324" y="545" fill="rgba(255,255,255,0.75)" font-size="11">秒杀</text>
    </g>
    <!-- redpacket -->
    <g filter="url(#shadow)">
      <rect x="66" y="572" width="110" height="56" rx="8" fill="url(#gPromo)" stroke="rgba(255,255,255,0.16)" stroke-width="1.2"/>
      <text x="78" y="600" fill="#fff" font-size="14" font-weight="700">redpacket</text>
      <text x="78" y="617" fill="rgba(255,255,255,0.75)" font-size="11">红包</text>
    </g>
    <!-- groupbuy -->
    <g filter="url(#shadow)">
      <rect x="188" y="572" width="110" height="56" rx="8" fill="url(#gPromo)" stroke="rgba(255,255,255,0.16)" stroke-width="1.2"/>
      <text x="200" y="600" fill="#fff" font-size="14" font-weight="700">groupbuy</text>
      <text x="200" y="617" fill="rgba(255,255,255,0.75)" font-size="11">拼团</text>
    </g>
    <!-- preorder -->
    <g filter="url(#shadow)">
      <rect x="310" y="572" width="82" height="56" rx="8" fill="url(#gPromo)" stroke="rgba(255,255,255,0.16)" stroke-width="1.2"/>
      <text x="322" y="600" fill="#fff" font-size="14" font-weight="700">preorder</text>
      <text x="322" y="617" fill="rgba(255,255,255,0.75)" font-size="11">预售</text>
    </g>

    <text x="66" y="662" fill="rgba(255,255,255,0.5)" font-size="12">promo 是依赖源：交易域调用满减，不反向依赖任何消费者</text>
  </g>

  <!-- ============================================================ -->
  <!-- 横切 / 基座 gMQ（橙黄）：outbox response money台账 idempotency migrate -->
  <!-- ============================================================ -->
  <g>
    <rect x="448" y="458" width="704" height="152" rx="14" fill="rgba(251,191,36,0.05)" stroke="rgba(251,191,36,0.25)"/>
    <text x="466" y="484" fill="rgba(255,255,255,0.55)" font-size="13" letter-spacing="2">横切 / 基座 · 被各域复用，不属任何单一 bounded context</text>

    <!-- shared/outbox -->
    <g filter="url(#shadow)">
      <rect x="466" y="500" width="170" height="58" rx="8" fill="url(#gMQ)" stroke="rgba(255,255,255,0.16)" stroke-width="1.2"/>
      <text x="478" y="521" fill="rgba(255,255,255,0.6)" font-size="11">[Outbox · 事务消息]</text>
      <use href="#ic-outbox" x="478" y="529" width="22" height="22"/>
      <text x="506" y="542" fill="#fff" font-size="15" font-weight="700">shared/outbox</text>
    </g>
    <!-- shared/response -->
    <g filter="url(#shadow)">
      <rect x="648" y="500" width="148" height="58" rx="8" fill="url(#gMQ)" stroke="rgba(255,255,255,0.16)" stroke-width="1.2"/>
      <text x="660" y="521" fill="rgba(255,255,255,0.6)" font-size="11">[统一返回]</text>
      <text x="660" y="542" fill="#fff" font-size="15" font-weight="700">shared/response</text>
    </g>
    <!-- idempotency -->
    <g filter="url(#shadow)">
      <rect x="808" y="500" width="152" height="58" rx="8" fill="url(#gMQ)" stroke="rgba(255,255,255,0.16)" stroke-width="1.2"/>
      <text x="820" y="521" fill="rgba(255,255,255,0.6)" font-size="11">[幂等键]</text>
      <text x="820" y="542" fill="#fff" font-size="15" font-weight="700">idempotency</text>
    </g>
    <!-- migrate -->
    <g filter="url(#shadow)">
      <rect x="972" y="500" width="164" height="58" rx="8" fill="url(#gMQ)" stroke="rgba(255,255,255,0.16)" stroke-width="1.2"/>
      <text x="984" y="521" fill="rgba(255,255,255,0.6)" font-size="11">[Schema 迁移]</text>
      <text x="984" y="542" fill="#fff" font-size="15" font-weight="700">migrate</text>
    </g>

    <text x="466" y="588" fill="rgba(255,255,255,0.5)" font-size="12">跨域写一律经属主领域服务方法落库；事件经 outbox 投递保证最终一致</text>
  </g>

  <!-- ============================================================ -->
  <!-- 底座基础设施 gData（绿）：MySQL Redis RabbitMQ ES Milvus      -->
  <!-- ============================================================ -->
  <g>
    <rect x="48" y="640" width="1104" height="118" rx="14" fill="rgba(52,211,153,0.05)" stroke="rgba(52,211,153,0.25)"/>
    <text x="66" y="666" fill="rgba(255,255,255,0.55)" font-size="13" letter-spacing="2">基础设施底座 · gData · repository/</text>

    <!-- MySQL -->
    <g filter="url(#shadow)">
      <rect x="66" y="680" width="196" height="58" rx="8" fill="url(#gData)" stroke="rgba(255,255,255,0.16)" stroke-width="1.2"/>
      <text x="78" y="701" fill="rgba(255,255,255,0.6)" font-size="11">[RDBMS · 主库]</text>
      <use href="#ic-mysql" x="78" y="709" width="22" height="22"/>
      <text x="106" y="722" fill="#fff" font-size="15" font-weight="700">MySQL</text>
    </g>
    <!-- Redis -->
    <g filter="url(#shadow)">
      <rect x="278" y="680" width="196" height="58" rx="8" fill="url(#gData)" stroke="rgba(255,255,255,0.16)" stroke-width="1.2"/>
      <text x="290" y="701" fill="rgba(255,255,255,0.6)" font-size="11">[Cache · 锁/计数]</text>
      <use href="#ic-redis" x="290" y="709" width="22" height="22"/>
      <text x="318" y="722" fill="#fff" font-size="15" font-weight="700">Redis</text>
    </g>
    <!-- RabbitMQ -->
    <g filter="url(#shadow)">
      <rect x="490" y="680" width="218" height="58" rx="8" fill="url(#gData)" stroke="rgba(255,255,255,0.16)" stroke-width="1.2"/>
      <text x="502" y="701" fill="rgba(255,255,255,0.6)" font-size="11">[MQ · 异步/延迟]</text>
      <use href="#ic-rabbitmq" x="502" y="709" width="22" height="22"/>
      <text x="530" y="722" fill="#fff" font-size="15" font-weight="700">RabbitMQ</text>
    </g>
    <!-- ES -->
    <g filter="url(#shadow)">
      <rect x="724" y="680" width="196" height="58" rx="8" fill="url(#gData)" stroke="rgba(255,255,255,0.16)" stroke-width="1.2"/>
      <text x="736" y="701" fill="rgba(255,255,255,0.6)" font-size="11">[全文检索]</text>
      <use href="#ic-es" x="736" y="709" width="22" height="22"/>
      <text x="764" y="722" fill="#fff" font-size="15" font-weight="700">Elasticsearch</text>
    </g>
    <!-- Milvus -->
    <g filter="url(#shadow)">
      <rect x="936" y="680" width="200" height="58" rx="8" fill="url(#gData)" stroke="rgba(255,255,255,0.16)" stroke-width="1.2"/>
      <text x="948" y="701" fill="rgba(255,255,255,0.6)" font-size="11">[向量检索]</text>
      <use href="#ic-milvus" x="948" y="709" width="22" height="22"/>
      <text x="976" y="722" fill="#fff" font-size="15" font-weight="700">Milvus</text>
    </g>
  </g>

  <!-- ============================================================ -->
  <!-- 依赖边文字标注（盖在实线旁，带描边底避免压线看不清）         -->
  <!-- ============================================================ -->
  <g font-size="11" fill="rgba(255,255,255,0.72)" stroke="#0d1117" stroke-width="3" paint-order="stroke" stroke-linejoin="round">
    <text x="412" y="172">定价/库存</text>
    <text x="412" y="202">归属转移</text>
    <text x="412" y="376">购物车取价</text>
    <text x="98" y="452">满减计算</text>
    <text x="565" y="92">地址归属校验</text>
    <text x="640" y="100">余额扣减</text>
    <text x="425" y="500">复用结算</text>
  </g>

  <!-- 底部图例：实线/虚线语义 -->
  <g transform="translate(742,640)" font-size="11.5">
    <line x1="0" y1="14" x2="34" y2="14" stroke="#cbd5e1" stroke-width="2" marker-end="url(#arrowDep)"/>
    <text x="42" y="18" fill="rgba(255,255,255,0.75)">同步域间依赖（依赖方 → 被依赖方）</text>
    <line x1="0" y1="34" x2="34" y2="34" stroke="#fbbf24" stroke-width="2" stroke-dasharray="5,5" marker-end="url(#arrowA)"/>
    <text x="42" y="38" fill="rgba(255,255,255,0.75)">异步发事件 → shared/outbox（最终一致）</text>
  </g>
</svg>
